<svg xmlns="http://www.w3.org/2000/svg" viewBox="0 0 353.87 138.01"><defs><style>.cls-1{fill:#0a3067;}.cls-2{fill:#36a9e1;}.cls-3{font-size:24.96px;fill:#575756;font-family:CaviarDreams, Caviar Dreams;letter-spacing:-0.03em;}.cls-4{letter-spacing:-0.04em;}.cls-5{letter-spacing:-0.03em;}</style></defs><title>Logo impronte colorRecurso 9</title><g id="Capa_2" data-name="Capa 2"><g id="Capa_1-2" data-name="Capa 1"><path class="cls-1" d="M70.42,36.57q2.89-9.46,10.91-11.19a19.64,19.64,0,0,1,15.46,3.15q7.45,4.89,7.45,14.82v66.2H89.09V39.72q0-5.67-2.77-7T80.7,34q-2.83,2.6-2.84,8.75v66.83H63V42.72q0-6.15-2.84-8.75c-1.89-1.74-3.79-2.16-5.68-1.26s-2.84,3.23-2.84,7v69.83h-15V43.35q0-9.93,7.45-14.82A19.64,19.64,0,0,1,59.5,25.38Q67.51,27.11,70.42,36.57Z"/><path class="cls-1" d="M153,43.5V91a20,20,0,0,1-4.48,13.16q-4.49,5.43-10.66,5.44H126.45v25.06h-15V24.9h26.38q6.18,0,10.66,5.44A20,20,0,0,1,153,43.5Zm-26.5-12.29v72h6.06a4.58,4.58,0,0,0,3.78-2,7.64,7.64,0,0,0,1.52-4.81V38a7.68,7.68,0,0,0-1.52-4.81,4.61,4.61,0,0,0-3.78-2Z"/><path class="cls-1" d="M175.29,24.9h11.36V38.46a12.54,12.54,0,0,0-4.86-5.67q-3-1.74-5,.47A7.33,7.33,0,0,0,175.29,38v71.56H160.15v-66a20.08,20.08,0,0,1,4.47-13.16Q169.11,24.91,175.29,24.9Z"/><path class="cls-1" d="M238,24.9h26.38q6.18,0,10.67,5.44a20.08,20.08,0,0,1,4.48,13.16v66.05H264.39V38a7.67,7.67,0,0,0-1.51-4.81,4.62,4.62,0,0,0-3.79-2H253v78.34H238Z"/><path class="cls-1" d="M308.56,32.79H284.33V24.9h24.23Zm0,76.76H304q-6.31,0-10.6-5.52A20.27,20.27,0,0,1,289,91V0h15V96.46a7.31,7.31,0,0,0,1.51,4.73,4.74,4.74,0,0,0,3,2Z"/><path class="cls-1" d="M349.13,65.57A41.59,41.59,0,0,1,338.72,73a33.78,33.78,0,0,0-7.63,5.12,11.25,11.25,0,0,0-3.6,7.8V96.46q0,4.58,2.84,6.15a5.51,5.51,0,0,0,5.68,0q2.83-1.58,2.84-6.15V82.28h15v8.83a19.79,19.79,0,0,1-4.42,13.16q-4.43,5.28-10.6,5.28H327.49q-6.18,0-10.66-5.36a19.69,19.69,0,0,1-4.48-13.08V43.35a19.87,19.87,0,0,1,4.41-13.17c2.95-3.51,6.48-5.28,10.6-5.28h11.49q6.06,0,10.54,5.36a19.78,19.78,0,0,1,4.48,13.09v7.88Q353.87,61,349.13,65.57Zm-14.26,1.81a12,12,0,0,0,4-8.11V38c0-3.16-1-5.23-2.9-6.23a5.76,5.76,0,0,0-5.75.08q-2.83,1.57-2.84,6.15V72.51A35.43,35.43,0,0,0,334.87,67.38Z"/><path class="cls-1" d="M28.89,49c-2.48,3-12.73,8.68-13,20.33l.21,14.2c.55,14.33,1.33,19.68,5.21,19.68C28.56,103.24,30,56,30,56l.41,35.72c0,5.25.09,9.24-2.22,12.76s-4.13,5.11-7.37,5.11H11.89c-3.23,0-6-1.79-8.37-5.36A23.27,23.27,0,0,1,0,91.11V43.35c0-5.26,1.16-9.64,3.47-13.17s5.09-5.28,8.32-5.28h9c3.18,0,5.93,1.79,8.28,5.36S31.37,46,28.89,49Z"/><circle class="cls-2" cx="15.4" cy="10.79" r="10.79"/><text class="cls-3" transform="translate(129.05 133.44)">inn<tspan class="cls-4" x="29.47" y="0">ov</tspan><tspan x="56.03" y="0">ando emp</tspan><tspan class="cls-5" x="168.8" y="0">r</tspan><tspan x="175.42" y="0">esas</tspan></text><path class="cls-1" d="M207.28,102.53c-1.89-1-2.84-3-2.84-6.07V38q0-4.58,2.84-6.07a6.07,6.07,0,0,1,2.91-.75V24.9h-5.75c-4,0-7.55,1.82-10.53,5.44a20,20,0,0,0-4.48,13.16V91a20,20,0,0,0,4.48,13.16c3,3.62,6.5,5.44,10.53,5.44h5.75v-6.27A6.07,6.07,0,0,1,207.28,102.53Z"/><path class="cls-2" d="M226.47,104.11A20.07,20.07,0,0,0,231,91V43.5a20.08,20.08,0,0,0-4.48-13.16Q222,24.91,215.8,24.9h-5.61v6.27a6.13,6.13,0,0,1,2.77.75c1.9,1,2.84,3,2.84,6.07V96.46c0,3.05-.94,5.08-2.84,6.07a6,6,0,0,1-2.77.75v6.27h5.61Q222,109.55,226.47,104.11Z"/></g></g></svg>